<svg viewBox="0 0 170 170" xmlns="http://www.w3.org/2000/svg"><path d="m150.37 130.25c-2.45 5.66-5.35 10.87-8.71 15.66-4.58 6.53-8.33 11.05-11.22 13.56-4.48 4.12-9.28 6.23-14.42 6.35-3.69 0-8.14-1.05-13.32-3.18-5.197-2.12-9.973-3.17-14.34-3.17-4.58 0-9.492 1.05-14.746 3.17-5.262 2.13-9.501 3.24-12.742 3.35-4.929.21-9.842-1.96-14.746-6.52-3.13-2.73-7.045-7.41-11.735-14.04-5.032-7.08-9.169-15.29-12.41-24.65-3.471-10.11-5.211-19.9-5.211-29.378 0-10.857 2.346-20.221 7.045-28.068 3.693-6.303 8.606-11.275 14.755-14.925s12.793-5.51 19.948-5.629c3.915 0 9.049 1.211 15.429 3.591 6.362 2.388 10.447 3.599 12.238 3.599 1.339 0 5.877-1.416 13.57-4.239 7.275-2.618 13.415-3.702 18.445-3.275 13.63 1.1 23.87 6.473 30.68 16.153-12.19 7.386-18.18 17.796-18.01 31.242.163 9.92 4.055 18.657 11.67 26.17 1.5 1.516 3.63 3.321 6.38 5.418-1.74 3.784-3.5 7.61-5.28 11.51zm-32.003-97.431c6.154-7.413 9.067-16.145 8.783-26.177-8.312.4411-16.273 4.123-23.901 11.028-5.647 5.166-9.138 12.029-10.609 20.617-1.077 5.567-1.03 9.686.136 12.35 8.857.063 17.65-2.071 25.591-7.818z" fill="#000"/></svg>
