<svg xmlns="http://www.w3.org/2000/svg" viewBox="0 0 216 68">
  <path fill="#00A8E1" d="M192.4 34.6c4.6 1.4 8.7 5.7 8.7 10.9 0 6.6-6.1 11.2-12.2 11.2-4.9 0-9.2-2.1-13-5.7l-2.4 2.8c4.2 4.4 9.8 6.7 15.6 6.7 8.6 0 16.5-6.3 16.5-15.1 0-6.1-4.2-11.4-9.3-13.4l-3.9 2.6zm-162-4.8c1.3 0 2.2-1.1 2.2-2.4 0-1.3-.9-2.4-2.2-2.4s-2.2 1.1-2.2 2.4c.1 1.3 1 2.4 2.2 2.4zm-14.9 27.5h4.4v-11c0-3.3 1.9-5.1 4.7-5.1 2.5 0 3.9 1.4 3.9 4.2v11.9h4.4v-11c0-3.3 1.9-5.1 4.7-5.1 2.5 0 3.9 1.4 3.9 4.2v11.9h4.4V42.6c0-4.6-2.5-7.7-6.9-7.7-2.9 0-5.3 1.4-6.6 3.7-.8-2.3-3-3.7-5.9-3.7-2.7 0-4.9 1.3-6.1 3.4l-.2-3h-4.3v17.4h-.4zm92.5-31.5c-4.9 1.5-7.8 6.5-6.6 11.8l-4.3.5c-1.5-6.4 2-12.7 8.3-14.7l2.6 2.4zM47.8 7.3c-4.2 0-7.8 3.5-7.8 8.1 0 4.6 3.6 8.2 7.8 8.2 4.2 0 7.8-3.6 7.8-8.2 0-4.6-3.6-8.1-7.8-8.1zm0 12.8c-2.3 0-4.2-2.1-4.2-4.7 0-2.6 1.9-4.7 4.2-4.7 2.3 0 4.2 2.1 4.2 4.7 0 2.6-1.9 4.7-4.2 4.7z"/>
  <path fill="#FFF" d="M127.3 35.3l-5.6 17.5h-4.6l-5.6-17.5h4.6l3.3 11.6 3.3-11.6h4.6zm-21.7 1.3h-4.4v16.1h4.4V36.6zm-2.2-6.5c-1.5 0-2.6 1.1-2.6 2.6 0 1.5 1.1 2.6 2.6 2.6 1.5 0 2.6-1.1 2.6-2.6 0-1.5-1.1-2.6-2.6-2.6zm65.9 6.5h-4.4v16.1h4.4V36.6zm13.1 7.9h-8v1.8c0 2.5 1.3 3.6 3.5 3.6 1.4 0 2.6-.5 3.4-1.3l2.4 2.5c-1.4 1.5-3.5 2.3-5.9 2.3-4.7 0-7.7-3-7.7-7.9 0-4.7 3.1-8.3 7.6-8.3 4.6 0 7.2 3.6 7.2 8.1v-.8h-2.5zm-4.3-1.8v-1.9c0-1.8-.8-2.6-2.3-2.6-1.4 0-2.6.9-2.9 2.6l5.2 1.9zm-79.6-6.1h4.4v6.8c.8-1.5 2.5-3 5.1-3 4.1 0 6.9 3.2 6.9 8.1 0 5-2.9 8.3-7.1 8.3-2.4 0-4.2-1.3-5.1-3v2.6h-4.4V36.6h.2zm11 12.5c2 0 3.3-1.6 3.3-4.5 0-2.8-1.3-4.5-3.3-4.5-1.9 0-3.3 1.6-3.3 4.5 0 2.9 1.4 4.5 3.3 4.5z"/>
</svg>
