<svg xmlns="http://www.w3.org/2000/svg" viewBox="0 0 541 169">
  <path fill="#1DB954" d="M110.5 84.7c-9 0-16.3-7.3-16.3-16.3s7.3-16.3 16.3-16.3 16.3 7.3 16.3 16.3-7.3 16.3-16.3 16.3zM84.7 169C37.9 169 0 131.1 0 84.3S37.9 0 84.7 0c46.7 0 84.3 37.9 84.3 84.7 0 46.8-37.5 84.3-84.3 84.3zm38.7-39.7c-1.5-2.5-4.8-3.4-7.3-1.8-19.9 12.1-45 14.9-74.4 8.2-2.8-.6-5.6 1.1-6.2 4-1.1 2.9 1.1 5.7 4 6.2 32.2 7.3 60.1 4.2 82.2-9.3 2.5-1.5 3.3-4.7 1.7-7.3zm10.7-22.1c-1.9-3.2-6.1-4.2-9.3-2.3-23.4 14.4-59.1 18.6-86.8 10.2-3.6-1.1-7.4 1-8.5 4.5-1.1 3.6 1 7.4 4.5 8.5 31.6 9.6 71.4 4.9 97.9-11.4 3.1-1.9 4.1-6.1 2.2-9.5zm1.5-22.9C107.8 67 62.6 65.6 36.4 73.6c-4.2 1.3-8.6-1.1-9.9-5.3-1.3-4.2 1.1-8.6 5.3-9.9 30.2-9.1 80.1-7.5 143 29.8 3.8 2.3 5 7.1 2.8 11-2.3 3.9-7.2 5.1-11.1 2.8z"/>
  <path fill="#ffffff" d="M228.4 81.3c-13.6 0-21.9 6.2-26.6 15.1V83.1h-16.3v83.4h17.3v-40.4c0-11 4.9-17.5 15.6-17.5 8.9 0 13.1 4.7 13.1 13.4v44.5h17.3v-48.4c-.1-23.6-13.1-36.8-30.4-36.8zm57.7-18.7c-6.2 0-11.4 5.3-11.4 12.1 0 6.6 5.1 11.9 11.4 11.9 6.4 0 11.4-5.3 11.4-11.9 0-6.8-5.1-12.1-11.4-12.1zm-8.7 103.9h17.3V83.1h-17.3v83.4zm108.8-10.4c-9.6 8.5-20.9 12.5-33.8 12.5-24.5 0-39.6-15.1-39.6-43.2 0-27.2 14.5-44 40.2-44 14.5 0 24.3 4.2 32.2 13.8l-10 9.8c-6.8-7.7-12.3-9.8-21.5-9.8-13.4 0-22.1 9.8-22.1 29.1 0 18.7 9.4 28.9 22.8 28.9 9.8 0 17.5-4 22.3-13l9.5 5.9zm17.9-73h17.3V96h10.9v13.6h-10.9v35.3c0 9.2 4.2 12.5 10.9 12.5v12.3c-14.9.4-28.1-4.7-28.1-23.2V109.6h-7.7V96h7.7V83.1zm59.6 96.2L427.3 83.1h18.3l25.3 75.3 22.6-75.3h17.9L474 196.4h-18.3l-16.1-41.5 4.1 24.4z"/>
</svg>
